<svg width="48" height="24" viewBox="0 0 48 24" fill="none" xmlns="http://www.w3.org/2000/svg">
  <path d="M0.659 24V0.159998H8.435C10.9523 0.159998 13.139 0.671998 14.995 1.696C16.8723 2.69867 18.323 4.096 19.347 5.888C20.371 7.65867 20.883 9.71733 20.883 12.064C20.883 14.3893 20.371 16.4587 19.347 18.272C18.323 20.064 16.8723 21.472 14.995 22.496C13.139 23.4987 10.9523 24 8.435 24H0.659ZM5.011 20.16H8.531C10.1523 20.16 11.5497 19.8293 12.723 19.168C13.9177 18.4853 14.8457 17.5467 15.507 16.352C16.1683 15.136 16.499 13.7067 16.499 12.064C16.499 10.4 16.1683 8.97067 15.507 7.776C14.8457 6.58133 13.9177 5.65333 12.723 4.992C11.5497 4.33067 10.1523 4 8.531 4H5.011V20.16ZM23.3865 24V0.159998H27.5465L36.4745 12.288H34.4905L43.2265 0.159998H47.3865V24H43.0025V5.12L44.6985 5.536L35.6425 17.6H35.1305L26.2985 5.536L27.7385 5.12V24H23.3865Z" fill="#3563E9"/>
</svg>
